
<svg width="2400" height="1350" viewBox="0 0 2400 1350" xmlns="http://www.w3.org/2000/svg" role="img" aria-label="Colaberry enterprise hero background">
  <defs>
    <linearGradient id="bg-dashboard" x1="0" y1="0" x2="1" y2="1">
      <stop offset="0" stop-color="#060B18"/>
      <stop offset="0.54" stop-color="#101C39"/>
      <stop offset="1" stop-color="#12365A"/>
    </linearGradient>
    <radialGradient id="orb-a-dashboard" cx="52%" cy="42%" r="56%">
      <stop offset="0" stop-color="#7B5CE0" stop-opacity="0.48"/>
      <stop offset="1" stop-color="#7B5CE0" stop-opacity="0"/>
    </radialGradient>
    <radialGradient id="orb-b-dashboard" cx="56%" cy="54%" r="56%">
      <stop offset="0" stop-color="#35C8DE" stop-opacity="0.44"/>
      <stop offset="1" stop-color="#35C8DE" stop-opacity="0"/>
    </radialGradient>
    <linearGradient id="flow-dashboard" x1="1380" y1="1180" x2="2310" y2="420" gradientUnits="userSpaceOnUse">
      <stop stop-color="#C9BAFF" stop-opacity="0.88"/>
      <stop offset="0.56" stop-color="#86EAFF" stop-opacity="0.84"/>
      <stop offset="1" stop-color="#C9BAFF" stop-opacity="0.62"/>
    </linearGradient>
    <linearGradient id="left-scrim-dashboard" x1="0" y1="0" x2="1" y2="0">
      <stop offset="0" stop-color="#030712" stop-opacity="0.94"/>
      <stop offset="0.58" stop-color="#030712" stop-opacity="0.84"/>
      <stop offset="1" stop-color="#030712" stop-opacity="0"/>
    </linearGradient>
    <pattern id="grid-dashboard" width="92" height="92" patternUnits="userSpaceOnUse">
      <path d="M92 0H0V92" stroke="#A9B7D0" stroke-opacity="0.085" stroke-width="1"/>
    </pattern>
    <filter id="soft-blur-dashboard" x="-35%" y="-35%" width="170%" height="170%">
      <feGaussianBlur stdDeviation="72"/>
    </filter>
  </defs>

  <rect width="100%" height="100%" fill="url(#bg-dashboard)"/>
  <rect width="100%" height="100%" fill="url(#grid-dashboard)"/>
  <ellipse cx="1880" cy="360" rx="740" ry="450" fill="url(#orb-a-dashboard)" filter="url(#soft-blur-dashboard)"/>
  <ellipse cx="1800" cy="980" rx="980" ry="560" fill="url(#orb-b-dashboard)" filter="url(#soft-blur-dashboard)"/>

  
        <g opacity="0.96">
          <rect x="1320" y="220" width="920" height="560" rx="22" fill="rgba(11,22,46,0.82)" stroke="#C9BAFF" stroke-opacity="0.35"/>
          <rect x="1354" y="254" width="420" height="160" rx="14" fill="rgba(152,206,255,0.10)" stroke="#86EAFF" stroke-opacity="0.35"/>
          <rect x="1798" y="254" width="408" height="160" rx="14" fill="rgba(202,190,255,0.10)" stroke="#C9BAFF" stroke-opacity="0.35"/>
          <rect x="1354" y="440" width="850" height="74" rx="14" fill="rgba(140,235,255,0.09)" stroke="#86EAFF" stroke-opacity="0.28"/>
          <rect x="1354" y="536" width="260" height="214" rx="14" fill="rgba(197,188,255,0.08)" stroke="#C9BAFF" stroke-opacity="0.32"/>
          <rect x="1636" y="536" width="260" height="214" rx="14" fill="rgba(126,223,255,0.08)" stroke="#86EAFF" stroke-opacity="0.32"/>
          <rect x="1918" y="536" width="286" height="214" rx="14" fill="rgba(197,188,255,0.08)" stroke="#C9BAFF" stroke-opacity="0.32"/>
        </g>
      

  <g fill="none" stroke="url(#flow-dashboard)" stroke-linecap="round">
    <path d="M1380 1100C1540 980 1680 1020 1830 900C1960 796 2090 840 2260 730" stroke-width="8"/>
    <path d="M1380 1168C1540 1064 1690 1088 1840 990C1970 904 2100 948 2260 860" stroke-width="3.2" opacity="0.8"/>
  </g>
  <g fill="#EAF7FF" opacity="0.94">
    <circle cx="1380" cy="1100" r="6"/>
    <circle cx="1830" cy="900" r="6"/>
    <circle cx="2260" cy="730" r="6"/>
  </g>
  <rect width="1300" height="1350" fill="url(#left-scrim-dashboard)"/>
</svg>
